<svg class="svg-flag svg-icon" xmlns="http://www.w3.org/2000/svg" viewBox="0 0 20 20">
    <path fill="#aaaaaa" d="M13.476,7.152l4.16,1.387c0.279,0.093,0.429,0.394,0.336,0.673 c-0.053,0.159-0.178,0.283-0.336,0.336l-4.134,1.378l1.949,3.898c0.131,0.263,0.025,0.582-0.238,0.714 c-0.15,0.075-0.326,0.075-0.476,0l-3.922-1.961l-1.353,4.06c-0.093,0.279-0.394,0.429-0.673,0.336 c-0.159-0.053-0.283-0.178-0.336-0.336l-1.353-4.06l-3.922,1.961c-0.263,0.131-0.582,0.025-0.714-0.238 c-0.075-0.15-0.075-0.326,0-0.476l1.961-3.922l-4.06-1.353C0.085,9.455-0.065,9.154,0.027,8.875C0.08,8.716,0.205,8.591,0.364,8.538 L4.45,7.176L2.524,3.324C2.392,3.061,2.499,2.741,2.762,2.61c0.15-0.075,0.326-0.075,0.476,0l3.828,1.914l1.387-4.16 c0.093-0.279,0.394-0.429,0.673-0.336C9.284,0.08,9.409,0.205,9.462,0.364l1.387,4.16l3.828-1.914 c0.263-0.131,0.582-0.025,0.714,0.238c0.075,0.15,0.075,0.326,0,0.476L13.476,7.152z" />
</svg>
